<svg width="14" height="12" viewBox="0 0 14 12" fill="none" xmlns="http://www.w3.org/2000/svg">
<path fill-rule="evenodd" clip-rule="evenodd" d="M1.53762 1.13757C2.13771 0.537659 2.9515 0.20065 3.80002 0.20065C4.64855 0.20065 5.46234 0.537659 6.06242 1.13757L7.00002 2.07437L7.93762 1.13757C8.23281 0.831934 8.58592 0.588151 8.97633 0.420442C9.36674 0.252733 9.78665 0.164458 10.2115 0.160765C10.6364 0.157073 11.0578 0.238039 11.4511 0.398938C11.8443 0.559836 12.2016 0.797446 12.5021 1.0979C12.8025 1.39836 13.0402 1.75565 13.2011 2.14891C13.362 2.54218 13.4429 2.96356 13.4392 3.38845C13.4355 3.81334 13.3473 4.23325 13.1795 4.62366C13.0118 5.01407 12.7681 5.36718 12.4624 5.66237L7.00002 11.1256L1.53762 5.66237C0.937717 5.06228 0.600708 4.24849 0.600708 3.39997C0.600708 2.55144 0.937717 1.73766 1.53762 1.13757Z" fill="#F13939"/>
</svg>
