<svg width="14" height="14" viewBox="0 0 14 14" fill="none" xmlns="http://www.w3.org/2000/svg">
<path fill-rule="evenodd" clip-rule="evenodd" d="M6.97959 0.333374C3.30987 0.333374 0.333313 3.39293 0.333313 7.16498C0.333313 10.1826 2.24972 12.7392 4.85931 13.6613C5.1855 13.7032 5.30783 13.4936 5.30783 13.326C5.30783 13.1583 5.30783 12.7392 5.30783 12.1525C3.47297 12.5716 3.06522 11.2304 3.06522 11.2304C2.7798 10.4341 2.33127 10.2245 2.33127 10.2245C1.71965 9.80541 2.37205 9.80541 2.37205 9.80541C3.02444 9.84732 3.39142 10.5179 3.39142 10.5179C4.00304 11.5657 4.94086 11.2723 5.30783 11.1047C5.3486 10.6436 5.55248 10.3503 5.71558 10.1826C4.24769 10.015 2.69825 9.42821 2.69825 6.78777C2.69825 6.03336 2.9429 5.4466 3.39142 4.94366C3.35064 4.81792 3.10599 4.10542 3.47297 3.18337C3.47297 3.18337 4.04381 3.01572 5.30783 3.89587C5.8379 3.72822 6.40875 3.68631 6.97959 3.68631C7.55044 3.68631 8.12128 3.77013 8.65136 3.89587C9.91537 3.01572 10.4862 3.18337 10.4862 3.18337C10.8532 4.10542 10.6085 4.81792 10.5678 4.98557C10.9755 5.4466 11.2609 6.07527 11.2609 6.82968C11.2609 9.47012 9.7115 10.015 8.24361 10.1826C8.48826 10.3922 8.69213 10.8113 8.69213 11.44C8.69213 12.362 8.69213 13.0745 8.69213 13.326C8.69213 13.4936 8.81446 13.7032 9.14065 13.6613C11.791 12.7392 13.6666 10.1826 13.6666 7.16498C13.6259 3.39293 10.6493 0.333374 6.97959 0.333374Z" fill="black"/>
</svg>
